<svg width="20" height="20" viewBox="0 0 20 20" fill="none" xmlns="http://www.w3.org/2000/svg">
<rect width="20" height="20" fill="#2B2D3C"/>
<path d="M18.234 16.2748L18.2352 16.274L18.2074 16.226C18.1938 16.2004 18.1806 16.1746 18.1642 16.151L10.6262 3.0944C10.504 2.8726 10.271 2.7204 9.99957 2.7204C9.70557 2.7204 9.45337 2.8978 9.34257 3.151L9.34177 3.1506L1.86237 16.1058L1.86957 16.11C1.76417 16.2369 1.70619 16.3965 1.70557 16.5614C1.70557 16.7518 1.78116 16.9343 1.91572 17.069C2.05029 17.2036 2.23281 17.2793 2.42317 17.2794H17.5766C17.7669 17.2793 17.9495 17.2037 18.0841 17.0691C18.2187 16.9345 18.2943 16.752 18.2944 16.5616C18.2944 16.4594 18.2724 16.3628 18.234 16.2748ZM10.007 15.9234C9.43217 15.9234 8.96677 15.472 8.96677 14.8974C8.96677 14.3226 9.43197 13.8574 10.007 13.8574C10.5676 13.8574 11.033 14.3224 11.033 14.8974C11.0332 15.0322 11.0067 15.1657 10.9552 15.2902C10.9037 15.4148 10.8282 15.528 10.7329 15.6233C10.6376 15.7186 10.5244 15.7942 10.3998 15.8457C10.2753 15.8972 10.1418 15.9236 10.007 15.9234ZM11.033 6.85V12.5098H11.0326L11.033 12.513C11.033 12.7476 10.843 12.9318 10.6142 12.9318L10.6114 12.9316V12.9318H9.39277C9.15797 12.9318 8.96817 12.7476 8.96817 12.513L8.96857 12.5098H8.96817V6.8652C8.96797 6.86 8.96657 6.855 8.96657 6.8498C8.96657 6.6264 9.13957 6.4506 9.35357 6.4342V6.431H10.6112V6.4312C10.841 6.4326 11.026 6.6106 11.0318 6.839H11.0328V6.85H11.033Z" fill="#E6E8FA"/>
</svg>
