<svg width="20" height="20" viewBox="0 0 20 20" fill="none" xmlns="http://www.w3.org/2000/svg">
<g clip-path="url(#clip0)">
<rect width="20" height="20" fill="#2B2D3C"/>
<path d="M18.4863 9.86327L10.4414 1.8242C10.3835 1.76616 10.3147 1.72012 10.2389 1.6887C10.1632 1.65728 10.082 1.64111 10 1.64111C9.918 1.64111 9.83681 1.65728 9.76106 1.6887C9.68532 1.72012 9.61652 1.76616 9.55859 1.8242L1.51367 9.86327C1.2793 10.0976 1.14648 10.416 1.14648 10.748C1.14648 11.4375 1.70703 11.998 2.39648 11.998H3.24414V17.7344C3.24414 18.0801 3.52344 18.3594 3.86914 18.3594H8.75V13.9844H10.9375V18.3594H16.1309C16.4766 18.3594 16.7559 18.0801 16.7559 17.7344V11.998H17.6035C17.9355 11.998 18.2539 11.8672 18.4883 11.6308C18.9746 11.1426 18.9746 10.3515 18.4863 9.86327V9.86327Z" fill="#E6E8FA"/>
<path d="M410.6 361.5L150.9 101.8C191.2 49.7 213 -14 213 -81C213 -161.2 181.7 -236.4 125.1 -293.1C68.5 -349.8 -6.9 -381 -87 -381C-167.1 -381 -242.5 -349.7 -299.1 -293.1C-355.8 -236.5 -387 -161.2 -387 -81C-387 -0.900002 -355.7 74.5 -299.1 131.1C-242.5 187.8 -167.2 219 -87 219C-20 219 43.6 197.2 95.7 157L355.4 416.6C356.162 417.362 357.066 417.966 358.061 418.379C359.056 418.791 360.123 419.003 361.2 419.003C362.277 419.003 363.344 418.791 364.339 418.379C365.334 417.966 366.238 417.362 367 416.6L410.6 373.1C411.362 372.338 411.966 371.434 412.379 370.439C412.791 369.444 413.003 368.377 413.003 367.3C413.003 366.223 412.791 365.156 412.379 364.161C411.966 363.166 411.362 362.262 410.6 361.5V361.5ZM71.4 77.4C29 119.7 -27.2 143 -87 143C-146.8 143 -203 119.7 -245.4 77.4C-287.7 35 -311 -21.2 -311 -81C-311 -140.8 -287.7 -197.1 -245.4 -239.4C-203 -281.7 -146.8 -305 -87 -305C-27.2 -305 29.1 -281.8 71.4 -239.4C113.7 -197 137 -140.8 137 -81C137 -21.2 113.7 35.1 71.4 77.4Z" fill="#E6E8FA"/>
</g>
<defs>
<clipPath id="clip0">
<rect width="20" height="20" fill="white"/>
</clipPath>
</defs>
</svg>
