<svg width="20" height="20" viewBox="0 0 20 20" fill="none" xmlns="http://www.w3.org/2000/svg">
<rect width="20" height="20" fill="#2B2D3C"/>
<path d="M18.4833 8.88189L19.7448 9.56798C19.8226 9.61022 19.887 9.67004 19.9318 9.74158C19.9765 9.81313 20 9.89397 20 9.97621C20 10.0585 19.9765 10.1393 19.9318 10.2108C19.887 10.2824 19.8226 10.3422 19.7448 10.3844L10 15.6857L0.255217 10.3844C0.177391 10.3422 0.112971 10.2824 0.0682413 10.2108C0.0235116 10.1393 0 10.0585 0 9.97621C0 9.89397 0.0235116 9.81313 0.0682413 9.74158C0.112971 9.67004 0.177391 9.61022 0.255217 9.56798L1.51674 8.88189L10 13.4971L18.4833 8.88189ZM18.4833 13.3543L19.7448 14.0404C19.8226 14.0827 19.887 14.1425 19.9318 14.214C19.9765 14.2856 20 14.3664 20 14.4486C20 14.5309 19.9765 14.6117 19.9318 14.6833C19.887 14.7548 19.8226 14.8146 19.7448 14.8569L10.5405 19.8641C10.3773 19.953 10.1904 20 10 20C9.80957 20 9.62273 19.953 9.4595 19.8641L0.255217 14.8569C0.177391 14.8146 0.112971 14.7548 0.0682413 14.6833C0.0235116 14.6117 0 14.5309 0 14.4486C0 14.3664 0.0235116 14.2856 0.0682413 14.214C0.112971 14.1425 0.177391 14.0827 0.255217 14.0404L1.51674 13.3543L10 17.9695L18.4833 13.3543ZM10.5395 0.135895L19.7448 5.14312C19.8226 5.18537 19.887 5.24518 19.9318 5.31673C19.9765 5.38827 20 5.46911 20 5.55135C20 5.63359 19.9765 5.71443 19.9318 5.78598C19.887 5.85752 19.8226 5.91734 19.7448 5.95958L10 11.2608L0.255217 5.95958C0.177391 5.91734 0.112971 5.85752 0.0682413 5.78598C0.0235116 5.71443 0 5.63359 0 5.55135C0 5.46911 0.0235116 5.38827 0.0682413 5.31673C0.112971 5.24518 0.177391 5.18537 0.255217 5.14312L9.4595 0.135895C9.62273 0.0469762 9.80957 0 10 0C10.1904 0 10.3773 0.0469762 10.5405 0.135895H10.5395Z" fill="#E6E8FA"/>
</svg>
