<svg width="32" height="32" viewBox="0 0 32 32" fill="none" xmlns="http://www.w3.org/2000/svg">
<path d="M15.9884 11.8259C13.6947 11.8259 11.8228 13.6978 11.8228 15.9916C11.8228 18.2853 13.6947 20.1572 15.9884 20.1572C18.2822 20.1572 20.1541 18.2853 20.1541 15.9916C20.1541 13.6978 18.2822 11.8259 15.9884 11.8259ZM28.4822 15.9916C28.4822 14.2666 28.4978 12.5572 28.4009 10.8353C28.3041 8.8353 27.8478 7.0603 26.3853 5.5978C24.9197 4.13218 23.1478 3.67905 21.1478 3.58218C19.4228 3.4853 17.7134 3.50093 15.9916 3.50093C14.2666 3.50093 12.5572 3.4853 10.8353 3.58218C8.8353 3.67905 7.0603 4.1353 5.5978 5.5978C4.13218 7.06343 3.67905 8.8353 3.58218 10.8353C3.4853 12.5603 3.50093 14.2697 3.50093 15.9916C3.50093 17.7134 3.4853 19.4259 3.58218 21.1478C3.67905 23.1478 4.1353 24.9228 5.5978 26.3853C7.06343 27.8509 8.8353 28.3041 10.8353 28.4009C12.5603 28.4978 14.2697 28.4822 15.9916 28.4822C17.7166 28.4822 19.4259 28.4978 21.1478 28.4009C23.1478 28.3041 24.9228 27.8478 26.3853 26.3853C27.8509 24.9197 28.3041 23.1478 28.4009 21.1478C28.5009 19.4259 28.4822 17.7166 28.4822 15.9916ZM15.9884 22.4009C12.4416 22.4009 9.57905 19.5384 9.57905 15.9916C9.57905 12.4447 12.4416 9.58218 15.9884 9.58218C19.5353 9.58218 22.3978 12.4447 22.3978 15.9916C22.3978 19.5384 19.5353 22.4009 15.9884 22.4009ZM22.6603 10.8166C21.8322 10.8166 21.1634 10.1478 21.1634 9.31968C21.1634 8.49155 21.8322 7.8228 22.6603 7.8228C23.4884 7.8228 24.1572 8.49155 24.1572 9.31968C24.1574 9.51632 24.1189 9.71108 24.0437 9.8928C23.9686 10.0745 23.8584 10.2396 23.7193 10.3787C23.5803 10.5177 23.4151 10.628 23.2334 10.7031C23.0517 10.7783 22.8569 10.8168 22.6603 10.8166Z" fill="#F2F2F2"/>
</svg>
