<svg width="20" height="20" viewBox="0 0 20 20" fill="none" xmlns="http://www.w3.org/2000/svg">
<rect width="20" height="20" fill="#2B2D3C"/>
<path d="M18.0943 8.73332L16.2332 8.17776C16.1046 7.72849 15.9276 7.29448 15.7055 6.88332L16.6166 5.17776C16.6508 5.11338 16.6633 5.0397 16.6523 4.96764C16.6413 4.89558 16.6073 4.829 16.5555 4.77776L15.2277 3.44443C15.1764 3.39258 15.1099 3.35863 15.0378 3.34762C14.9657 3.33661 14.8921 3.34913 14.8277 3.38332L13.1332 4.28887C12.718 4.05591 12.2783 3.86959 11.8221 3.73332L11.2666 1.89443C11.2431 1.82666 11.1987 1.76809 11.1398 1.72716C11.0809 1.68623 11.0105 1.66504 10.9388 1.66665H9.06101C8.98887 1.66699 8.91872 1.69034 8.86076 1.7333C8.80281 1.77627 8.76008 1.83661 8.73879 1.90554L8.18323 3.73887C7.72324 3.87442 7.27977 4.06075 6.86101 4.29443L5.19435 3.39443C5.12997 3.36024 5.05628 3.34772 4.98422 3.35873C4.91217 3.36974 4.84558 3.40369 4.79435 3.45554L3.44435 4.77221C3.3925 4.82344 3.35855 4.89003 3.34754 4.96208C3.33653 5.03414 3.34905 5.10783 3.38324 5.17221L4.28324 6.83887C4.04993 7.25587 3.86361 7.69746 3.72768 8.15554L1.88879 8.7111C1.81986 8.73238 1.75952 8.77511 1.71655 8.83307C1.67359 8.89102 1.65024 8.96117 1.6499 9.03332V10.9111C1.65024 10.9832 1.67359 11.0534 1.71655 11.1113C1.75952 11.1693 1.81986 11.212 1.88879 11.2333L3.73879 11.7889C3.87621 12.2393 4.0625 12.6734 4.29435 13.0833L3.38324 14.8278C3.34905 14.8921 3.33653 14.9658 3.34754 15.0379C3.35855 15.1099 3.3925 15.1765 3.44435 15.2278L4.77212 16.5555C4.82336 16.6074 4.88995 16.6413 4.962 16.6523C5.03406 16.6634 5.10775 16.6508 5.17212 16.6167L6.88879 15.7C7.29488 15.9191 7.72324 16.0942 8.16657 16.2222L8.72212 18.0944C8.74341 18.1634 8.78614 18.2237 8.8441 18.2667C8.90205 18.3096 8.9722 18.333 9.04435 18.3333H10.9221C10.9943 18.333 11.0644 18.3096 11.1224 18.2667C11.1803 18.2237 11.2231 18.1634 11.2443 18.0944L11.7999 16.2167C12.2394 16.088 12.664 15.9129 13.0666 15.6944L14.7943 16.6167C14.8587 16.6508 14.9324 16.6634 15.0045 16.6523C15.0765 16.6413 15.1431 16.6074 15.1943 16.5555L16.5221 15.2278C16.574 15.1765 16.6079 15.1099 16.6189 15.0379C16.6299 14.9658 16.6174 14.8921 16.5832 14.8278L15.661 13.1055C15.8818 12.7015 16.0587 12.275 16.1888 11.8333L18.061 11.2778C18.1299 11.2565 18.1903 11.2137 18.2332 11.1558C18.2762 11.0978 18.2996 11.0277 18.2999 10.9555V9.06109C18.3032 8.99201 18.2852 8.92358 18.2485 8.86499C18.2118 8.8064 18.158 8.76045 18.0943 8.73332ZM9.9999 13.0555C9.39557 13.0555 8.80481 12.8763 8.30233 12.5406C7.79984 12.2048 7.4082 11.7276 7.17694 11.1693C6.94567 10.611 6.88516 9.99659 7.00306 9.40387C7.12096 8.81116 7.41197 8.26671 7.8393 7.83938C8.26662 7.41205 8.81107 7.12104 9.40379 7.00314C9.99651 6.88524 10.6109 6.94575 11.1692 7.17702C11.7275 7.40829 12.2048 7.79992 12.5405 8.30241C12.8763 8.80489 13.0555 9.39565 13.0555 9.99998C13.0555 10.8104 12.7335 11.5876 12.1605 12.1606C11.5875 12.7336 10.8103 13.0555 9.9999 13.0555Z" fill="#E6E8FA"/>
</svg>
